<mxfile host="app.diagrams.net" modified="2023-11-06T16:53:42.967Z" agent="Mozilla/5.0 (X11; Linux x86_64) AppleWebKit/537.36 (KHTML, like Gecko) Chrome/118.0.0.0 Safari/537.36" etag="6Ko_WtmrY1lqyh2iZo1O" version="21.5.0" type="github">
  <diagram name="Page-1" id="74e2e168-ea6b-b213-b513-2b3c1d86103e">
    <mxGraphModel dx="2588" dy="828" grid="1" gridSize="10" guides="1" tooltips="1" connect="1" arrows="1" fold="1" page="1" pageScale="1" pageWidth="1100" pageHeight="850" background="none" math="0" shadow="0">
      <root>
        <mxCell id="0" />
        <mxCell id="1" parent="0" />
        <mxCell id="E1_FhYV8x5bMA8bJBCid-72" style="edgeStyle=orthogonalEdgeStyle;rounded=0;orthogonalLoop=1;jettySize=auto;html=1;entryX=0.5;entryY=0;entryDx=0;entryDy=0;" edge="1" parent="1" source="E1_FhYV8x5bMA8bJBCid-14" target="E1_FhYV8x5bMA8bJBCid-15">
          <mxGeometry relative="1" as="geometry" />
        </mxCell>
        <mxCell id="E1_FhYV8x5bMA8bJBCid-14" value="linksys_e8450_installer&lt;br&gt;START" style="strokeWidth=2;html=1;shape=mxgraph.flowchart.start_1;whiteSpace=wrap;" vertex="1" parent="1">
          <mxGeometry x="720" y="10" width="160" height="60" as="geometry" />
        </mxCell>
        <mxCell id="E1_FhYV8x5bMA8bJBCid-73" style="edgeStyle=orthogonalEdgeStyle;rounded=0;orthogonalLoop=1;jettySize=auto;html=1;" edge="1" parent="1" source="E1_FhYV8x5bMA8bJBCid-15" target="E1_FhYV8x5bMA8bJBCid-16">
          <mxGeometry relative="1" as="geometry" />
        </mxCell>
        <mxCell id="E1_FhYV8x5bMA8bJBCid-15" value="Setup Local Vars" style="rounded=1;whiteSpace=wrap;html=1;absoluteArcSize=1;arcSize=14;strokeWidth=2;" vertex="1" parent="1">
          <mxGeometry x="710" y="100" width="180" height="50" as="geometry" />
        </mxCell>
        <mxCell id="E1_FhYV8x5bMA8bJBCid-75" style="edgeStyle=orthogonalEdgeStyle;rounded=0;orthogonalLoop=1;jettySize=auto;html=1;entryX=0.5;entryY=0;entryDx=0;entryDy=0;" edge="1" parent="1" source="E1_FhYV8x5bMA8bJBCid-16" target="E1_FhYV8x5bMA8bJBCid-17">
          <mxGeometry relative="1" as="geometry" />
        </mxCell>
        <mxCell id="E1_FhYV8x5bMA8bJBCid-16" value="prepare_openwrt_ib&lt;br&gt;Download Files&lt;br&gt;Extract Image Builder&lt;br&gt;Setup DTC binary" style="rounded=1;whiteSpace=wrap;html=1;absoluteArcSize=1;arcSize=14;strokeWidth=2;" vertex="1" parent="1">
          <mxGeometry x="710" y="180" width="180" height="70" as="geometry" />
        </mxCell>
        <mxCell id="E1_FhYV8x5bMA8bJBCid-71" style="edgeStyle=orthogonalEdgeStyle;rounded=0;orthogonalLoop=1;jettySize=auto;html=1;entryX=0.5;entryY=0;entryDx=0;entryDy=0;" edge="1" parent="1" source="E1_FhYV8x5bMA8bJBCid-17" target="E1_FhYV8x5bMA8bJBCid-69">
          <mxGeometry relative="1" as="geometry">
            <Array as="points">
              <mxPoint x="432" y="305" />
              <mxPoint x="432" y="30" />
              <mxPoint x="80" y="30" />
            </Array>
          </mxGeometry>
        </mxCell>
        <mxCell id="E1_FhYV8x5bMA8bJBCid-77" style="edgeStyle=orthogonalEdgeStyle;rounded=0;orthogonalLoop=1;jettySize=auto;html=1;" edge="1" parent="1" source="E1_FhYV8x5bMA8bJBCid-17" target="E1_FhYV8x5bMA8bJBCid-67">
          <mxGeometry relative="1" as="geometry" />
        </mxCell>
        <mxCell id="E1_FhYV8x5bMA8bJBCid-17" value="bundle_initrd&lt;br&gt;recovery&lt;br&gt;${INSTALLERDIR}/dl/${OPENWRT_INITRD}" style="rounded=1;whiteSpace=wrap;html=1;absoluteArcSize=1;arcSize=14;strokeWidth=2;" vertex="1" parent="1">
          <mxGeometry x="670" y="280" width="260" height="50" as="geometry" />
        </mxCell>
        <mxCell id="E1_FhYV8x5bMA8bJBCid-53" style="edgeStyle=orthogonalEdgeStyle;rounded=0;orthogonalLoop=1;jettySize=auto;html=1;" edge="1" parent="1" source="E1_FhYV8x5bMA8bJBCid-35" target="E1_FhYV8x5bMA8bJBCid-36">
          <mxGeometry relative="1" as="geometry" />
        </mxCell>
        <mxCell id="E1_FhYV8x5bMA8bJBCid-35" value="extract_initrd&lt;br&gt;decompresses the initrd image" style="rounded=1;whiteSpace=wrap;html=1;absoluteArcSize=1;arcSize=14;strokeWidth=2;" vertex="1" parent="1">
          <mxGeometry x="20" y="270" width="120" height="50" as="geometry" />
        </mxCell>
        <mxCell id="E1_FhYV8x5bMA8bJBCid-54" style="edgeStyle=orthogonalEdgeStyle;rounded=0;orthogonalLoop=1;jettySize=auto;html=1;entryX=0.5;entryY=0;entryDx=0;entryDy=0;entryPerimeter=0;" edge="1" parent="1" source="E1_FhYV8x5bMA8bJBCid-36" target="E1_FhYV8x5bMA8bJBCid-39">
          <mxGeometry relative="1" as="geometry" />
        </mxCell>
        <mxCell id="E1_FhYV8x5bMA8bJBCid-36" value="back in bundle_initrd&lt;br&gt;Remove Packages&lt;br&gt;Update Package List&lt;br&gt;Add Packages" style="rounded=1;whiteSpace=wrap;html=1;absoluteArcSize=1;arcSize=14;strokeWidth=2;" vertex="1" parent="1">
          <mxGeometry x="-10" y="350" width="180" height="70" as="geometry" />
        </mxCell>
        <mxCell id="E1_FhYV8x5bMA8bJBCid-37" value="recovery" style="edgeStyle=orthogonalEdgeStyle;rounded=0;orthogonalLoop=1;jettySize=auto;html=1;" edge="1" parent="1" source="E1_FhYV8x5bMA8bJBCid-39" target="E1_FhYV8x5bMA8bJBCid-40">
          <mxGeometry relative="1" as="geometry" />
        </mxCell>
        <mxCell id="E1_FhYV8x5bMA8bJBCid-38" value="installer" style="edgeStyle=orthogonalEdgeStyle;rounded=0;orthogonalLoop=1;jettySize=auto;html=1;" edge="1" parent="1" source="E1_FhYV8x5bMA8bJBCid-39" target="E1_FhYV8x5bMA8bJBCid-41">
          <mxGeometry relative="1" as="geometry" />
        </mxCell>
        <mxCell id="E1_FhYV8x5bMA8bJBCid-39" value="imagetype?" style="strokeWidth=2;html=1;shape=mxgraph.flowchart.decision;whiteSpace=wrap;" vertex="1" parent="1">
          <mxGeometry x="30" y="450" width="100" height="100" as="geometry" />
        </mxCell>
        <mxCell id="E1_FhYV8x5bMA8bJBCid-56" style="edgeStyle=orthogonalEdgeStyle;rounded=0;orthogonalLoop=1;jettySize=auto;html=1;" edge="1" parent="1" source="E1_FhYV8x5bMA8bJBCid-40" target="E1_FhYV8x5bMA8bJBCid-42">
          <mxGeometry relative="1" as="geometry" />
        </mxCell>
        <mxCell id="E1_FhYV8x5bMA8bJBCid-40" value="Add Additional Recovery Packages" style="rounded=1;whiteSpace=wrap;html=1;absoluteArcSize=1;arcSize=14;strokeWidth=2;" vertex="1" parent="1">
          <mxGeometry x="-160" y="610" width="180" height="70" as="geometry" />
        </mxCell>
        <mxCell id="E1_FhYV8x5bMA8bJBCid-55" style="edgeStyle=orthogonalEdgeStyle;rounded=0;orthogonalLoop=1;jettySize=auto;html=1;" edge="1" parent="1" source="E1_FhYV8x5bMA8bJBCid-41" target="E1_FhYV8x5bMA8bJBCid-42">
          <mxGeometry relative="1" as="geometry" />
        </mxCell>
        <mxCell id="E1_FhYV8x5bMA8bJBCid-41" value="Copy additional files from /files including directories&lt;br&gt;Copy addiontal files to /installer" style="rounded=1;whiteSpace=wrap;html=1;absoluteArcSize=1;arcSize=14;strokeWidth=2;" vertex="1" parent="1">
          <mxGeometry x="150" y="610" width="180" height="70" as="geometry" />
        </mxCell>
        <mxCell id="E1_FhYV8x5bMA8bJBCid-57" style="edgeStyle=orthogonalEdgeStyle;rounded=0;orthogonalLoop=1;jettySize=auto;html=1;entryX=0.5;entryY=0;entryDx=0;entryDy=0;" edge="1" parent="1" source="E1_FhYV8x5bMA8bJBCid-42" target="E1_FhYV8x5bMA8bJBCid-43">
          <mxGeometry relative="1" as="geometry" />
        </mxCell>
        <mxCell id="E1_FhYV8x5bMA8bJBCid-42" value="Standardize timestamp on opkg status to&amp;nbsp;SOURCE_DATE_EPOCH" style="rounded=1;whiteSpace=wrap;html=1;absoluteArcSize=1;arcSize=14;strokeWidth=2;" vertex="1" parent="1">
          <mxGeometry x="-10" y="760" width="180" height="70" as="geometry" />
        </mxCell>
        <mxCell id="E1_FhYV8x5bMA8bJBCid-58" style="edgeStyle=orthogonalEdgeStyle;rounded=0;orthogonalLoop=1;jettySize=auto;html=1;entryX=0.5;entryY=0;entryDx=0;entryDy=0;" edge="1" parent="1" source="E1_FhYV8x5bMA8bJBCid-43" target="E1_FhYV8x5bMA8bJBCid-44">
          <mxGeometry relative="1" as="geometry" />
        </mxCell>
        <mxCell id="E1_FhYV8x5bMA8bJBCid-43" value="enable_services&lt;br&gt;set all services to start on boot that are in the /etc/init.d directory" style="rounded=1;whiteSpace=wrap;html=1;absoluteArcSize=1;arcSize=14;strokeWidth=2;" vertex="1" parent="1">
          <mxGeometry x="-10" y="870" width="180" height="70" as="geometry" />
        </mxCell>
        <mxCell id="E1_FhYV8x5bMA8bJBCid-59" style="edgeStyle=orthogonalEdgeStyle;rounded=0;orthogonalLoop=1;jettySize=auto;html=1;entryX=0.5;entryY=0;entryDx=0;entryDy=0;" edge="1" parent="1" source="E1_FhYV8x5bMA8bJBCid-44" target="E1_FhYV8x5bMA8bJBCid-45">
          <mxGeometry relative="1" as="geometry" />
        </mxCell>
        <mxCell id="E1_FhYV8x5bMA8bJBCid-44" value="Standardize timestamp on everything in initrd&lt;br&gt;SOURCE_DATE_EPOCH" style="rounded=1;whiteSpace=wrap;html=1;absoluteArcSize=1;arcSize=14;strokeWidth=2;" vertex="1" parent="1">
          <mxGeometry x="-10" y="980" width="180" height="70" as="geometry" />
        </mxCell>
        <mxCell id="E1_FhYV8x5bMA8bJBCid-60" style="edgeStyle=orthogonalEdgeStyle;rounded=0;orthogonalLoop=1;jettySize=auto;html=1;entryX=0.5;entryY=0;entryDx=0;entryDy=0;entryPerimeter=0;" edge="1" parent="1" source="E1_FhYV8x5bMA8bJBCid-45" target="E1_FhYV8x5bMA8bJBCid-48">
          <mxGeometry relative="1" as="geometry" />
        </mxCell>
        <mxCell id="E1_FhYV8x5bMA8bJBCid-45" value="repack_initrd&lt;br&gt;do another check on files for&amp;nbsp;SOURCE_DATE_EPOCH&lt;br&gt;re-compress initrd" style="rounded=1;whiteSpace=wrap;html=1;absoluteArcSize=1;arcSize=14;strokeWidth=2;" vertex="1" parent="1">
          <mxGeometry y="1090" width="160" height="70" as="geometry" />
        </mxCell>
        <mxCell id="E1_FhYV8x5bMA8bJBCid-46" value="recovery" style="edgeStyle=orthogonalEdgeStyle;rounded=0;orthogonalLoop=1;jettySize=auto;html=1;entryX=0.5;entryY=0;entryDx=0;entryDy=0;" edge="1" parent="1" source="E1_FhYV8x5bMA8bJBCid-48" target="E1_FhYV8x5bMA8bJBCid-49">
          <mxGeometry relative="1" as="geometry" />
        </mxCell>
        <mxCell id="E1_FhYV8x5bMA8bJBCid-47" value="installer" style="edgeStyle=orthogonalEdgeStyle;rounded=0;orthogonalLoop=1;jettySize=auto;html=1;entryX=0.5;entryY=0;entryDx=0;entryDy=0;" edge="1" parent="1" source="E1_FhYV8x5bMA8bJBCid-48" target="E1_FhYV8x5bMA8bJBCid-50">
          <mxGeometry relative="1" as="geometry" />
        </mxCell>
        <mxCell id="E1_FhYV8x5bMA8bJBCid-48" value="imagetype?" style="strokeWidth=2;html=1;shape=mxgraph.flowchart.decision;whiteSpace=wrap;" vertex="1" parent="1">
          <mxGeometry x="30" y="1210" width="100" height="100" as="geometry" />
        </mxCell>
        <mxCell id="E1_FhYV8x5bMA8bJBCid-64" style="edgeStyle=orthogonalEdgeStyle;rounded=0;orthogonalLoop=1;jettySize=auto;html=1;entryX=0.5;entryY=0;entryDx=0;entryDy=0;" edge="1" parent="1" source="E1_FhYV8x5bMA8bJBCid-49" target="E1_FhYV8x5bMA8bJBCid-62">
          <mxGeometry relative="1" as="geometry" />
        </mxCell>
        <mxCell id="E1_FhYV8x5bMA8bJBCid-49" value="refit_image 128k&lt;br&gt;setup local vars" style="rounded=1;whiteSpace=wrap;html=1;absoluteArcSize=1;arcSize=14;strokeWidth=2;" vertex="1" parent="1">
          <mxGeometry x="-160" y="1480" width="180" height="50" as="geometry" />
        </mxCell>
        <mxCell id="E1_FhYV8x5bMA8bJBCid-61" style="edgeStyle=orthogonalEdgeStyle;rounded=0;orthogonalLoop=1;jettySize=auto;html=1;entryX=0.5;entryY=0;entryDx=0;entryDy=0;" edge="1" parent="1" source="E1_FhYV8x5bMA8bJBCid-50" target="E1_FhYV8x5bMA8bJBCid-51">
          <mxGeometry relative="1" as="geometry" />
        </mxCell>
        <mxCell id="E1_FhYV8x5bMA8bJBCid-50" value="allow_mtd_write&lt;br&gt;Modifies the device tree to allow writing to MTD partitions" style="rounded=1;whiteSpace=wrap;html=1;absoluteArcSize=1;arcSize=14;strokeWidth=2;" vertex="1" parent="1">
          <mxGeometry x="145" y="1360" width="180" height="70" as="geometry" />
        </mxCell>
        <mxCell id="E1_FhYV8x5bMA8bJBCid-63" style="edgeStyle=orthogonalEdgeStyle;rounded=0;orthogonalLoop=1;jettySize=auto;html=1;entryX=0.5;entryY=0;entryDx=0;entryDy=0;" edge="1" parent="1" source="E1_FhYV8x5bMA8bJBCid-51" target="E1_FhYV8x5bMA8bJBCid-62">
          <mxGeometry relative="1" as="geometry" />
        </mxCell>
        <mxCell id="E1_FhYV8x5bMA8bJBCid-51" value="refit_image 128k $imagetype&lt;br&gt;setup local vars" style="rounded=1;whiteSpace=wrap;html=1;absoluteArcSize=1;arcSize=14;strokeWidth=2;" vertex="1" parent="1">
          <mxGeometry x="145" y="1480" width="180" height="50" as="geometry" />
        </mxCell>
        <mxCell id="E1_FhYV8x5bMA8bJBCid-66" style="edgeStyle=orthogonalEdgeStyle;rounded=0;orthogonalLoop=1;jettySize=auto;html=1;entryX=0.5;entryY=0;entryDx=0;entryDy=0;" edge="1" parent="1" source="E1_FhYV8x5bMA8bJBCid-62" target="E1_FhYV8x5bMA8bJBCid-65">
          <mxGeometry relative="1" as="geometry" />
        </mxCell>
        <mxCell id="E1_FhYV8x5bMA8bJBCid-62" value="its_add_data&lt;br&gt;Modifies an ITS (Image Tree Source) file by adding data properties to image descriptions" style="rounded=1;whiteSpace=wrap;html=1;absoluteArcSize=1;arcSize=14;strokeWidth=2;" vertex="1" parent="1">
          <mxGeometry x="-10" y="1610" width="180" height="70" as="geometry" />
        </mxCell>
        <mxCell id="E1_FhYV8x5bMA8bJBCid-68" style="edgeStyle=orthogonalEdgeStyle;rounded=0;orthogonalLoop=1;jettySize=auto;html=1;entryX=0;entryY=0.5;entryDx=0;entryDy=0;" edge="1" parent="1" source="E1_FhYV8x5bMA8bJBCid-65" target="E1_FhYV8x5bMA8bJBCid-67">
          <mxGeometry relative="1" as="geometry" />
        </mxCell>
        <mxCell id="E1_FhYV8x5bMA8bJBCid-65" value="Creates a new FIT image from a modified ITS file, adjusting parameters for external or static data." style="rounded=1;whiteSpace=wrap;html=1;absoluteArcSize=1;arcSize=14;strokeWidth=2;" vertex="1" parent="1">
          <mxGeometry x="-10" y="1730" width="180" height="70" as="geometry" />
        </mxCell>
        <mxCell id="E1_FhYV8x5bMA8bJBCid-67" value="Cleanup files from recovery bundlging process" style="rounded=1;whiteSpace=wrap;html=1;absoluteArcSize=1;arcSize=14;strokeWidth=2;" vertex="1" parent="1">
          <mxGeometry x="670" y="370" width="260" height="50" as="geometry" />
        </mxCell>
        <mxCell id="E1_FhYV8x5bMA8bJBCid-70" style="edgeStyle=orthogonalEdgeStyle;rounded=0;orthogonalLoop=1;jettySize=auto;html=1;entryX=0.5;entryY=0;entryDx=0;entryDy=0;" edge="1" parent="1" source="E1_FhYV8x5bMA8bJBCid-69" target="E1_FhYV8x5bMA8bJBCid-35">
          <mxGeometry relative="1" as="geometry" />
        </mxCell>
        <mxCell id="E1_FhYV8x5bMA8bJBCid-69" value="unfit_image&lt;br&gt;FILEBASE=&quot;$(basename &quot;$INFILE&quot; .itb)&quot;&lt;br&gt;WORKDIR=&quot;$(mktemp -d)&quot;&lt;br&gt;Converts a FIT (Flattened Image Tree) image to a device tree source (DTS) and removes existing data nodes related to the image content." style="rounded=1;whiteSpace=wrap;html=1;absoluteArcSize=1;arcSize=14;strokeWidth=2;" vertex="1" parent="1">
          <mxGeometry x="-35" y="120" width="230" height="110" as="geometry" />
        </mxCell>
      </root>
    </mxGraphModel>
  </diagram>
</mxfile>
